<?xml version="1.0" encoding="iso-8859-1"?>
<!-- Generator: Adobe Illustrator 24.1.3, SVG Export Plug-In . SVG Version: 6.00 Build 0)  -->
<svg version="1.1" id="Layer_1" xmlns="http://www.w3.org/2000/svg" xmlns:xlink="http://www.w3.org/1999/xlink" x="0px" y="0px"
	 viewBox="0 0 2436 1125" style="enable-background:new 0 0 2436 1125;" xml:space="preserve">
<g>
	<g>
		<path style="fill:#E52727;" d="M760.754,555.622l-0.384,181.594h-37.059V561.075c0-20.209-3.067-39.342-9.128-56.865
			c-6.021-17.461-14.198-31.623-24.305-42.157c-10.198-10.183-21.482-15.283-33.589-15.283c-11.85,0-23.068,5.23-33.342,15.548
			c-10.264,10.313-18.466,24.295-24.371,41.582c-6.163,16.737-9.324,36.044-9.324,57.2c0,20.185,3.07,39.336,9.131,56.884
			c6.046,17.505,14.245,31.493,24.381,41.545c9.785,10.529,21.108,15.92,33.524,15.92c10.471,0,20.422-4.333,29.72-12.447v68.718
			c-9.556,4.884-19.457,7.589-29.72,7.589c-18.659,0-36.231-8.072-52.222-23.991c-15.987-15.945-28.766-37.955-37.97-65.426
			c-9.48-26.715-14.274-56.536-14.274-88.791c0-31.865,4.732-61.817,14.067-89.064c9.334-27.291,22.255-49.326,38.398-65.487
			c15.834-15.679,33.342-23.639,52.015-23.639c18.412,0,35.858,7.873,51.859,23.354c16.013,15.524,28.933,36.68,38.398,62.826
			C755.97,495.612,760.769,524.723,760.754,555.622z"/>
		<path style="fill:#E52727;" d="M982.839,584.343c0,29.927-4.449,57.198-13.203,81.011c-8.78,23.86-20.851,42.554-35.858,55.546
			c-15.319,12.628-31.306,19.071-47.424,19.071c-16.876,0-32.827-6.536-47.399-19.374c-14.506-12.824-26.392-31.208-35.316-54.648
			c-8.856-23.77-13.371-51.258-13.371-81.649V384.271h37.044v200.027c0,28.281,5.84,50.973,17.37,67.444
			c11.331,16.161,25.361,24.362,41.671,24.362c16.042,0,29.927-8.201,41.262-24.362c11.527-16.472,17.366-39.163,17.366-67.444
			V384.271h37.069L982.839,584.343z"/>
		<path style="fill:#E52727;" d="M1100.987,434.978H1014.2V333.541h39.995v43.563h46.792V434.978z M1122.585,673.468v65.815h-52.026
			c-31.074,0-56.36-43.124-56.36-96.096V506.116h39.984v120.817c0,25.663,12.249,46.534,27.296,46.534H1122.585z"/>
		<path style="fill:#E52727;" d="M1342.185,561.799c0,31.821-4.732,61.817-14.071,89.063c-9.334,27.266-22.109,49.061-37.97,64.764
			c-15.874,16.161-33.498,24.344-52.429,24.344c-18.669,0-36.242-8.071-52.218-23.997c-15.991-15.92-28.766-37.931-37.973-65.419
			c-9.491-26.716-14.285-56.537-14.285-88.773c0-31.821,4.729-61.817,14.067-89.064c9.346-27.29,22.266-49.326,38.398-65.487
			c15.831-15.679,33.342-23.639,52.012-23.639c18.426,0,35.922,8.072,52.04,24.016c16.118,15.92,29.114,37.732,38.591,64.801
			C1337.528,499.809,1342.195,529.916,1342.185,561.799z M1301.541,561.757c0-19.678-2.783-38.11-8.289-54.712
			c-5.531-16.668-13.346-30.013-23.235-39.651c-9.879-9.631-20.745-14.508-32.301-14.508c-11.552,0-22.346,4.772-32.09,14.181
			c-9.749,9.39-17.577,22.698-23.235,39.627c-5.651,16.848-8.511,35.386-8.511,55.088c0,19.727,2.875,38.153,8.521,54.779
			c5.647,16.644,13.526,29.946,23.402,39.583c9.89,9.632,20.618,14.509,31.913,14.509c11.581,0,22.385-4.902,32.134-14.533
			c9.733-9.612,17.548-23.045,23.194-39.937C1298.691,599.341,1301.556,581.044,1301.541,561.757z"/>
	</g>
	<g>
		<path style="fill:#404040;stroke:#404040;stroke-width:14.7014;stroke-miterlimit:10;" d="M1593.902,560.923
			c0,31.865-4.667,61.966-13.846,89.349c-9.48,27.093-22.477,48.881-38.594,64.825c-16.118,15.944-33.626,24.016-52.041,24.016
			c-9.219,0-18.013-2.42-26.523-6.27v-72.147c8.228,6.394,17.098,9.786,26.522,9.786c11.581,0,22.437-4.884,32.377-14.558
			c9.84-10.07,17.704-23.595,23.352-40.202c5.646-16.644,8.51-35.07,8.51-54.778c0-19.237-2.863-37.534-8.547-54.513
			c-5.919-16.823-13.849-30.212-23.571-39.843c-9.734-9.613-20.539-14.496-32.12-14.496c-11.305,0-22.033,4.865-31.912,14.472
			c-9.875,9.674-17.74,22.982-23.401,39.608c-5.658,16.619-8.521,35.052-8.521,54.772c0,0.136,0.309,230.944,0.309,230.944h-40.949
			V555.491c0-31.289,4.783-60.164,14.233-85.896c9.477-26.628,22.382-48.001,38.384-63.481
			c15.976-15.505,33.422-23.354,51.858-23.354c18.916,0,36.555,8.177,52.43,24.319c15.859,15.704,28.624,37.492,37.973,64.782
			C1589.158,499.109,1593.892,529.102,1593.902,560.923z"/>
		<path style="fill:#404040;stroke:#404040;stroke-width:14.7014;stroke-miterlimit:10;" d="M1750.861,674v65.815h-71.108
			c-31.074,0-56.36-43.124-56.36-96.102V332.705h40.177v294.761c0,25.663,12.249,46.534,27.296,46.534H1750.861z"/>
		<path style="fill:#404040;stroke:#404040;stroke-width:14.7014;stroke-miterlimit:10;" d="M1969.152,554.768l-0.385,181.594
			h-37.059V560.221c0-20.209-3.066-39.342-9.128-56.865c-6.021-17.461-14.198-31.623-24.306-42.157
			c-10.198-10.183-21.481-15.283-33.589-15.283c-11.85,0-23.068,5.23-33.343,15.548c-10.264,10.313-18.466,24.295-24.37,41.582
			c-6.163,16.737-9.324,36.044-9.324,57.2c0,20.185,3.071,39.336,9.132,56.884c6.047,17.505,14.245,31.493,24.382,41.545
			c9.784,10.529,21.107,15.92,33.523,15.92c10.471,0,20.422-4.333,29.721-12.447v68.718c-9.557,4.884-19.457,7.589-29.721,7.589
			c-18.658,0-36.231-8.072-52.222-23.991c-15.987-15.945-28.767-37.955-37.971-65.426c-9.479-26.715-14.273-56.536-14.273-88.791
			c0-31.865,4.732-61.817,14.067-89.064c9.334-27.291,22.254-49.326,38.397-65.487c15.835-15.679,33.343-23.639,52.016-23.639
			c18.411,0,35.857,7.873,51.859,23.354c16.012,15.524,28.933,36.68,38.397,62.826
			C1964.369,494.758,1969.167,523.868,1969.152,554.768z"/>
		<path style="fill:#404040;stroke:#404040;stroke-width:14.7014;stroke-miterlimit:10;" d="M2199.113,605.697
			c-3.582,23.533-9.811,45.147-18.553,64.392c-9.734,21.392-21.933,38.413-36.258,50.619
			c-14.041,12.225-29.593,18.408-46.237,18.408c-18.673,0-36.245-8.071-52.222-23.998c-15.987-15.92-28.766-37.93-37.974-65.419
			c-9.49-26.715-14.285-56.537-14.285-88.772c0-31.822,4.733-61.817,14.067-89.064c9.35-27.291,22.266-49.326,38.398-65.487
			c15.834-15.679,33.342-23.639,52.015-23.639c16.114,0,31.55,6.178,45.85,18.409c14.339,12.225,26.679,29.265,36.671,50.688
			c8.692,19.504,14.905,41.1,18.491,64.187l-39.625-0.55c-4.885-19.746-12.688-36.087-23.194-48.621
			c-11.27-13.457-24.124-20.296-38.191-20.296c-11.839,0-23.057,5.237-33.346,15.567c-10.264,10.318-18.463,24.301-24.367,41.588
			c-6.166,16.731-9.324,36.037-9.324,57.193c0,20.21,3.067,39.343,9.128,56.872c6.036,17.479,14.234,31.469,24.371,41.558
			c9.799,10.534,21.119,15.92,33.538,15.92c14.067,0,26.998-6.927,38.409-20.625c10.637-12.775,18.491-29.228,23.376-48.93
			L2199.113,605.697z"/>
		<path style="fill:#404040;stroke:#404040;stroke-width:14.7014;stroke-miterlimit:10;" d="M2424.987,591.097l-206.82-0.18
			c-1.056-10.07-1.741-20.253-1.741-30.651c0-20.934,2.348-42.177,6.949-63.136c7.662-33.957,20.633-61.835,38.54-82.794
			c17.925-20.958,37.897-31.58,59.39-31.58c14.572,0,29.902,6.115,45.581,18.167c15.526,11.94,28.962,31.908,39.973,59.396
			C2418.875,491.255,2424.987,524.638,2424.987,591.097z M2317.784,674.882l83.311-0.465v65.313
			c-14.88-0.154-67.94-0.662-80.589-0.662c-14.829,0-30.225-6.115-45.772-18.167c-15.396-11.915-28.766-32.105-39.767-60.034
			c-0.823-2.061-1.394-4.265-2.166-6.375h49.398c4.511,5.435,9.309,10.163,14.557,13.524
			C2303.021,672.126,2309.894,674.349,2317.784,674.882z M2386.149,533.631l-2.839-13.809c-3.106-14.974-8.057-28.281-14.698-39.603
			c-6.612-11.302-14.531-19.949-23.558-25.73c-7.324-4.791-15.315-7.236-23.75-7.236c-13.77,0-26.585,6.58-38.114,19.51
			c-11.563,12.993-19.983,31.048-25.064,53.61l-2.591,13.283L2386.149,533.631z"/>
	</g>
	<g>
		<g>
			<path style="fill:#414141;" d="M312.362,773.372l-28.495-0.183c-26.837-0.137-51.024-27.516-61.54-69.589l-9.606-38.559
				l-7.706-30.847l-1.9-7.484l-3.666-14.694l-1.151-4.563l-7.706-30.847l-14.1-56.401l-4.013-16.108l-1.177-4.791l-1.605-6.252
				l-2.488-2.875l-8.535-9.857c-0.321-0.411-0.669-0.867-0.963-1.415c-24.375-40.384-37.807-90.762-34.275-132.196v-0.228
				c0.455-5.932,3.532-9.72,6.689-9.446c0.027-0.046,0.107-0.046,0.134,0c0.161,0,0.348,0.045,0.508,0.137l-0.027-0.137
				c0.054-0.046,0.107-0.046,0.161,0l56.938,0.319c5.351,0.045,10.515,1.962,15.278,5.521c0.883,0.593,1.766,1.324,2.622,2.099
				c7.706,6.936,13.94,18.161,17.472,32.399l7.679,30.756l7.545,30.208l2.997,11.865l0.08,0.502l2.783,11.134l1.846,7.256
				l4.977,19.941l23.412,93.728l2.649,10.495l3.639,14.602l1.151,4.609l3.666,14.693l1.873,7.484l0.401,1.643l30.422,121.701
				C320.122,765.249,317.018,773.372,312.362,773.372z"/>
			<path style="fill:#414141;" d="M152.734,498.396c-0.176-0.122-0.351-0.243-0.517-0.386l-0.274,0.664l-8.699-9.739
				c-0.345-0.395-0.69-0.855-0.996-1.381c-23.281-37.429-36.737-83.469-35.379-122.832c-0.122-0.647-0.245-1.308-0.367-1.931
				c-0.293-1.491-0.542-3.064-0.75-4.661l-16.496,65.027l-7.658,30.152l-3.055,11.838l-0.078,0.458l-2.823,11.119l-1.857,7.26
				l-5.067,19.883l-2.708,10.661l-1.199,4.775L46.4,591.64l-1.431,5.69L42.3,607.795l-3.713,14.586l-1.16,4.578l-3.713,14.651
				l-1.895,7.456l-0.425,1.635L0.528,772.092c-1.818,7.26,1.278,15.398,5.924,15.422l28.494,0.151
				c26.842,0.142,51.123-26.975,61.798-68.965l9.747-38.458l7.813-30.74l1.934-7.456l3.713-14.651l1.16-4.578l7.813-30.74
				l14.311-56.248l4.062-16.09l1.199-4.775l2.785-10.857l1.006-3.99l0.232-0.85l0.219-0.867
				C152.736,498.398,152.735,498.397,152.734,498.396z"/>
		</g>
		<g>
			<path style="fill:#E22828;" d="M478.793,463.938c0,7.803-0.562,15.515-1.605,22.907c-6.421,48.553-32.803,87.75-67.372,101.759
				c-0.856,0.685-1.766,1.278-2.729,1.734c-1.766,0.867-3.719,1.323-5.753,1.323l-125.514-0.684l-26.622-106.779l138.919,0.776
				c6.154-3.422,10.435-11.591,10.462-21.128c0.027-10.952-5.646-20.17-13.271-22.451c-0.963-0.319-1.9-0.548-2.917-0.593
				c-0.214-0.091-0.589-0.091-0.883-0.091c-0.294,0-0.589,0-0.883,0.091l-31.653-0.182c-1.712,0.411-3.478,0.593-5.244,0.593
				h-56.055c-30.689,0-50.971-53.526-37.994-100.208l0.963-3.377l0.348-1.278h114.116c1.391,0,2.756,0.228,4.067,0.684h0.08
				l37.833,0.183c36.148,13.279,63.867,53.846,70.262,104.087C478.284,448.651,478.819,456.181,478.793,463.938z"/>
		</g>
	</g>
</g>
<g>
</g>
<g>
</g>
<g>
</g>
<g>
</g>
<g>
</g>
<g>
</g>
<g>
</g>
<g>
</g>
<g>
</g>
<g>
</g>
<g>
</g>
</svg>
