<svg id="Layer_1" data-name="Layer 1" xmlns="http://www.w3.org/2000/svg" viewBox="0 0 2159 596.71"><path d="M138,650,417.33,500.92l-50.41-8.4,264.63-33.61L1228,509.32,793.26,440,1564,389.61,1179.7,328.7l464.14,60.91L1480,442.11l441.05-39.9-130.22-14.7s-210-105-380.13-113.41-310.83-6.3-478.85,56.7S667.25,431.61,667.25,431.61L280.81,477.82Z" transform="translate(-138 -270.55)" style="fill:#404040"/><path d="M1459,494.62l634.26-42-18.9-29.4L2297,385.41l-144.91,60.9v18.91s65.1,10.5,109.21,65.1,33.6,159.62,23.1,178.52l-10.5,18.9-6.3,27.3-8.4-25.2-21-42-168-155.42,88.21-25.2Z" transform="translate(-138 -270.55)" style="fill:#e52727"/><text transform="translate(496.95 540.05)" style="font-size:284.8815612792969px;fill:#e52727;font-family:PureMechanic, Font208"><tspan style="letter-spacing:0.01500075147303176em">AU</tspan><tspan x="358.09" y="0">T</tspan><tspan x="456.37" y="0" style="letter-spacing:0.01500075147303176em">O </tspan></text><text transform="translate(1147.19 534.66)" style="font-size:284.8815612792969px;fill:#404040;stroke:#404040;stroke-miterlimit:10;stroke-width:14.701359748840332px;font-family:PureMechanic, Font208;letter-spacing:0.01500075147303176em">P<tspan x="183.46" y="0" style="letter-spacing:0.004014140762093279em">L</tspan><tspan x="298.27" y="0" style="letter-spacing:0.01499732351337156em">ACE</tspan></text><path d="M442.69,824.89l-22.37-.08a52.67,52.67,0,0,1-48.31-32L364.47,775l-6-14.19-1.5-3.45-2.87-6.76-.91-2.1-6-14.2-11.07-26L332.89,701l-.93-2.2-1.26-2.88-1.95-1.32-6.7-4.54a6.41,6.41,0,0,1-.76-.65c-19.13-18.59-29.67-41.78-26.9-60.84v-.11a5,5,0,0,1,5.25-4.35.11.11,0,0,1,.11,0,1.16,1.16,0,0,1,.4.07l0-.07a.15.15,0,0,1,.13,0l44.69.15a30.08,30.08,0,0,1,12,2.54,18.36,18.36,0,0,1,2.06,1,30.11,30.11,0,0,1,13.72,14.91l6,14.15,5.93,13.91,2.35,5.46.06.23,2.19,5.12,1.45,3.34,3.9,9.18L413,737.17l2.08,4.83,2.85,6.72.91,2.12,2.87,6.76,1.47,3.45.32.75,23.88,56A5.09,5.09,0,0,1,442.69,824.89Z" transform="translate(-138 -270.55)" style="fill:#414141"/><path d="M317.39,698.34c-.14-.06-.28-.11-.41-.18l-.21.3L309.94,694a5.13,5.13,0,0,1-.78-.63c-18.28-17.23-28.84-38.42-27.77-56.54-.1-.29-.2-.6-.29-.88a20.54,20.54,0,0,1-.59-2.15l-12.95,29.93-6,13.88-2.4,5.44-.06.22-2.22,5.11-1.45,3.34-4,9.15-2.12,4.91-.95,2.2-14.45,33.29-1.12,2.62-2.1,4.82-2.91,6.71-.91,2.11L224,764.25l-1.48,3.43-.34.75L197.92,824.3a5.09,5.09,0,0,0,4.65,7.1l22.36.07a52.67,52.67,0,0,0,48.51-31.74l7.65-17.7,6.13-14.15,1.52-3.43,2.92-6.74.91-2.11,6.13-14.15,11.23-25.89,3.19-7.4.94-2.2,2.19-5,.79-1.84.18-.39.17-.4Z" transform="translate(-138 -270.55)" style="fill:#414141"/><path d="M573.32,682.48A45,45,0,0,1,572.06,693c-5,22.35-25.75,40.39-52.88,46.84a14.29,14.29,0,0,1-2.14.79,16.4,16.4,0,0,1-4.52.61L414,741,393.1,691.8l109,.36c4.83-1.58,8.19-5.33,8.21-9.72,0-5-4.43-9.29-10.42-10.34a14.2,14.2,0,0,0-2.29-.27,3.66,3.66,0,0,0-.69,0,4,4,0,0,0-.69,0l-24.85-.08a31.1,31.1,0,0,1-4.12.27h-44c-24.09,0-40-24.64-29.83-46.12l.76-1.56.27-.58h89.57a16,16,0,0,1,3.2.31h.06l29.7.09c28.37,6.11,50.13,24.78,55.15,47.9A47.94,47.94,0,0,1,573.32,682.48Z" transform="translate(-138 -270.55)" style="fill:#e22828"/></svg>