<svg xmlns="http://www.w3.org/2000/svg" viewBox="0 0 1244.5 194.45"><g id="Layer_2" data-name="Layer 2"><g id="Layer_3" data-name="Layer 3"><path d="M157.69,162.05,143.31,162a33.89,33.89,0,0,1-31.07-20.6L107.39,130l-3.89-9.13-1-2.22-1.85-4.35-.58-1.35-3.89-9.13L89.1,87.11l-2-4.76-.59-1.42-.81-1.85-1.26-.85L80.1,75.31a3.7,3.7,0,0,1-.48-.42C67.31,62.94,60.53,48,62.31,35.76v-.07a3.24,3.24,0,0,1,3.38-2.8h.07a.85.85,0,0,1,.26,0l0,0h.08l28.75.1a19.38,19.38,0,0,1,7.71,1.63,13.28,13.28,0,0,1,1.32.63,19.29,19.29,0,0,1,8.82,9.59l3.88,9.1,3.81,8.94,1.51,3.51,0,.15,1.41,3.3.93,2.15,2.51,5.9,11.82,27.74,1.34,3.11,1.84,4.32.58,1.37,1.85,4.35.94,2.21.21.49,15.35,36A3.27,3.27,0,0,1,157.69,162.05Z" style="fill:#404040"/><path d="M77.11,80.66c-.09,0-.18-.07-.27-.12l-.13.2-4.4-2.88a4.72,4.72,0,0,1-.5-.41C60.06,66.37,53.27,52.74,54,41.09l-.18-.57a12.17,12.17,0,0,1-.38-1.38L45.06,58.39l-3.87,8.92-1.54,3.51,0,.13-1.42,3.29-.94,2.15-2.56,5.89-1.37,3.15-.6,1.42-9.3,21.41-.72,1.68L21.35,113l-1.87,4.32-.59,1.35L17,123.05l-1,2.21-.21.48L.27,161.67a3.28,3.28,0,0,0,3,4.57l14.38,0a33.87,33.87,0,0,0,31.2-20.41l4.92-11.38,3.94-9.1,1-2.21,1.88-4.34.58-1.35,4-9.1,7.22-16.65,2-4.76L75,85.56l1.4-3.21.51-1.18.12-.25.11-.26Z" style="fill:#404040"/><path d="M241.71,70.46a28.85,28.85,0,0,1-.81,6.78c-3.24,14.37-16.56,26-34,30.12a8.36,8.36,0,0,1-1.38.51,10.42,10.42,0,0,1-2.9.4l-63.37-.21L125.8,76.46l70.13.23c3.11-1,5.27-3.44,5.29-6.26,0-3.24-2.85-6-6.7-6.64a8,8,0,0,0-1.48-.18,1.94,1.94,0,0,0-.44,0,2.27,2.27,0,0,0-.45,0l-16,0a19.24,19.24,0,0,1-2.65.17H145.23c-15.5,0-25.74-15.84-19.18-29.66l.48-1,.18-.38h57.61a10.64,10.64,0,0,1,2.05.2h0l19.1.06c18.25,3.93,32.24,15.94,35.47,30.81A30.91,30.91,0,0,1,241.71,70.46Z" style="fill:#fff"/><text transform="translate(286.14 158.77)" style="font-size:183.2230682373047px;fill:#fff;stroke:#fff;stroke-miterlimit:10;font-family:PureMechanic, Font208"><tspan style="letter-spacing:0.014998367298602473em">AU</tspan><tspan x="230.31" y="0">T</tspan><tspan x="293.52" y="0" style="letter-spacing:0.015001032253701727em">O </tspan></text><text transform="translate(704.35 155.3)" style="font-size:183.2230682373047px;fill:#404040;stroke:#404040;stroke-miterlimit:10;stroke-width:7px;font-family:PureMechanic, Font208;letter-spacing:0.014998367298602473em">P<tspan x="118" y="0" style="letter-spacing:0.004013422379476781em">L</tspan><tspan x="191.83" y="0">ACE</tspan></text></g></g></svg>